<?xml version="1.0" encoding="UTF-8"?>
<!DOCTYPE svg PUBLIC "-//W3C//DTD SVG 1.1//EN" "http://www.w3.org/Graphics/SVG/1.1/DTD/svg11.dtd">
<svg xmlns="http://www.w3.org/2000/svg" version="1.1" width="400px" height="400px" style="shape-rendering:geometricPrecision; text-rendering:geometricPrecision; image-rendering:optimizeQuality; fill-rule:evenodd; clip-rule:evenodd" xmlns:xlink="http://www.w3.org/1999/xlink">
<g><path style="opacity:0.997" fill="#fefdfc" d="M 301.5,38.5 C 307.758,38.1903 313.924,38.5236 320,39.5C 321.509,63.6697 322.009,87.8364 321.5,112C 322.782,132.841 323.115,153.675 322.5,174.5C 323.772,213 324.772,251.5 325.5,290C 325.428,293.864 325.095,297.698 324.5,301.5C 325.135,312.716 325.801,323.883 326.5,335C 325.87,338.129 325.204,341.296 324.5,344.5C 313.117,345.613 301.784,346.947 290.5,348.5C 274.647,347.029 258.814,346.029 243,345.5C 242.207,305.32 241.04,265.153 239.5,225C 239.964,211.609 239.464,198.109 238,184.5C 228.023,197.311 217.857,209.978 207.5,222.5C 202.533,223.662 197.533,223.829 192.5,223C 181.959,211.461 171.792,199.628 162,187.5C 161.615,209.753 161.448,231.92 161.5,254C 163.125,284.43 163.958,314.93 164,345.5C 163.5,346 163,346.5 162.5,347C 134.183,348.5 105.849,348.833 77.5,348C 76.646,346.978 75.646,346.145 74.5,345.5C 72.0251,305.984 72.0251,266.484 74.5,227C 74.2665,203.028 73.5998,179.028 72.5,155C 73.298,118.51 73.798,82.0095 74,45.5C 75.6477,43.9716 77.6477,43.3049 80,43.5C 84.1546,43.9784 88.3212,44.3118 92.5,44.5C 112.147,42.8729 131.813,42.0395 151.5,42C 167.653,61.8313 183.487,81.9979 199,102.5C 211.298,82.0655 224.464,62.2321 238.5,43C 239.833,42.3333 241.167,41.6667 242.5,41C 262.361,40.9582 282.028,40.1249 301.5,38.5 Z M 295.5,50.5 C 300.167,50.5 304.833,50.5 309.5,50.5C 311.228,145.29 312.561,239.956 313.5,334.5C 305.966,334.776 298.466,335.442 291,336.5C 285.42,335.048 279.92,334.715 274.5,335.5C 267.918,335.11 261.418,334.444 255,333.5C 253.41,276.822 251.576,220.156 249.5,163.5C 245.486,163.334 241.486,163.501 237.5,164C 227.019,174.155 217.852,185.322 210,197.5C 206.646,200.938 203.312,204.272 200,207.5C 197.384,205.888 195.05,203.888 193,201.5C 182.046,189.619 171.546,177.285 161.5,164.5C 157.833,163.167 154.167,163.167 150.5,164.5C 148.987,166.535 148.321,168.869 148.5,171.5C 149,176.5 149.5,181.5 150,186.5C 150.413,236.198 151.08,285.865 152,335.5C 129.925,337.157 107.758,337.824 85.5,337.5C 85.4227,243.488 85.0894,149.488 84.5,55.5C 102.498,54.5002 120.498,53.5002 138.5,52.5C 140.167,52.8333 141.833,53.1667 143.5,53.5C 160.395,74.2949 176.562,95.6282 192,117.5C 196.271,119.496 200.771,119.996 205.5,119C 214.43,106.046 222.596,92.546 230,78.5C 236.886,69.9478 243.386,61.1145 249.5,52C 265.005,51.8314 280.339,51.3314 295.5,50.5 Z"/></g>
</svg>
